<?xml version="1.0" standalone="no"?>
<!DOCTYPE svg PUBLIC "-//W3C//DTD SVG 20010904//EN"
 "http://www.w3.org/TR/2001/REC-SVG-20010904/DTD/svg10.dtd">
<svg version="1.0" xmlns="http://www.w3.org/2000/svg"
 width="459.000000pt" height="459.000000pt" viewBox="0 0 459.000000 459.000000"
 preserveAspectRatio="xMidYMid meet">

<g transform="translate(0.000000,459.000000) scale(0.100000,-0.100000)"
fill="#000000" stroke="none">
<path d="M2108 3810 c-89 -22 -186 -64 -255 -110 -64 -44 -144 -121 -136 -133
3 -6 1 -7 -5 -3 -14 9 -104 -104 -97 -122 3 -8 0 -10 -7 -6 -8 5 -9 2 -5 -10
4 -10 3 -15 -3 -11 -10 6 -56 -93 -52 -112 2 -7 -3 -13 -9 -13 -7 0 -10 -3 -7
-6 3 -3 -3 -30 -14 -61 -10 -31 -17 -61 -14 -68 2 -7 0 -17 -5 -22 -5 -5 -11
-24 -12 -41 -1 -18 -5 -32 -9 -32 -3 0 -4 -10 0 -22 3 -14 1 -19 -6 -14 -8 4
-10 2 -6 -7 3 -8 1 -18 -5 -22 -6 -3 -11 -12 -11 -18 1 -21 40 34 40 57 0 11
5 28 10 36 10 15 7 -12 -7 -64 -4 -13 -1 -16 7 -11 9 5 9 1 -1 -16 -9 -17 -12
-65 -10 -172 2 -131 1 -146 -13 -141 -11 4 -16 1 -16 -10 0 -9 4 -16 10 -16 6
0 6 -9 0 -25 -9 -24 4 -47 13 -23 3 7 6 0 6 -15 1 -16 -3 -26 -7 -23 -4 2 -7
-10 -7 -27 2 -39 -14 -65 -26 -45 -5 8 -9 9 -9 2 0 -6 11 -23 24 -37 21 -22
26 -24 36 -12 10 12 9 15 -3 15 -9 0 -19 4 -22 10 -3 6 1 7 9 4 9 -3 16 -2 16
4 0 6 -6 13 -12 15 -8 4 -7 6 4 6 9 1 18 -4 20 -10 2 -7 10 -4 18 7 8 10 10
15 4 11 -6 -3 -11 0 -11 7 0 9 7 12 16 8 9 -3 13 -2 9 3 -4 4 0 14 8 23 9 8
13 23 11 34 -3 10 -1 16 4 13 11 -7 62 73 54 85 -4 6 -1 10 4 10 6 0 10 3 9 8
-1 4 5 21 14 37 25 47 75 222 88 305 34 227 90 328 239 427 125 84 330 109
472 59 316 -111 447 -487 265 -761 -98 -149 -255 -235 -426 -235 -140 0 -277
-57 -381 -160 -218 -214 -219 -563 -2 -776 222 -219 571 -214 781 11 114 122
158 242 149 405 -5 109 -28 181 -90 278 -22 35 -36 67 -31 71 5 4 32 24 59 46
60 47 123 108 154 152 12 18 28 33 35 33 19 0 121 -146 155 -223 61 -135 73
-191 79 -349 4 -128 2 -161 -17 -242 -51 -219 -193 -423 -387 -557 -66 -45
-201 -106 -275 -124 -94 -22 -270 -30 -368 -16 -104 15 -219 53 -294 97 -32
19 -64 31 -70 28 -7 -4 -9 -4 -5 1 7 7 -32 45 -47 45 -4 0 -48 41 -97 91 -67
67 -93 87 -99 77 -5 -7 -9 -8 -9 -2 0 5 5 15 12 22 8 8 8 12 1 12 -6 0 -16 14
-23 30 -7 17 -17 30 -22 30 -5 0 -6 5 -2 11 4 8 0 7 -15 -1 -12 -6 -18 -16
-15 -22 5 -8 1 -9 -10 -5 -10 4 -15 3 -11 -3 4 -6 14 -9 23 -8 10 2 18 -5 20
-17 2 -16 1 -17 -7 -5 -9 12 -11 9 -11 -15 0 -23 3 -27 10 -15 7 10 10 -18 10
-87 0 -91 -2 -103 -17 -104 -15 0 -15 -2 2 -9 11 -5 15 -9 8 -9 -18 -1 -28
-42 -12 -51 10 -7 10 -11 0 -24 -11 -14 -9 -21 17 -47 19 -19 35 -28 43 -24 7
5 10 4 6 -2 -8 -13 21 -53 39 -53 8 0 14 -4 14 -8 0 -10 110 -83 175 -115 81
-40 223 -85 325 -103 106 -18 342 -15 440 6 432 92 774 396 909 808 44 134 56
214 56 367 -1 250 -52 432 -184 655 -106 179 -186 380 -256 640 -60 221 -246
426 -465 513 -148 58 -336 73 -482 37z m-558 -1225 c0 -2 -6 -8 -13 -14 -10
-8 -14 -7 -14 2 0 8 6 14 14 14 7 0 13 -1 13 -2z m-43 -81 c-3 -3 -12 -4 -19
-1 -8 3 -5 6 6 6 11 1 17 -2 13 -5z m968 -154 c172 -84 268 -262 237 -442 -25
-143 -112 -261 -239 -321 -65 -31 -73 -32 -188 -32 -112 0 -124 2 -180 30 -76
37 -169 131 -202 202 -55 121 -54 268 5 377 38 72 123 153 196 186 79 37 93
39 207 36 85 -3 103 -6 164 -36z m-980 -860 c3 -5 2 -10 -4 -10 -5 0 -13 5
-16 10 -3 6 -2 10 4 10 5 0 13 -4 16 -10z m12 -347 c-4 -3 -1 -13 6 -22 11
-14 10 -14 -5 -2 -16 12 -16 31 -1 31 4 0 3 -3 0 -7z m10 -58 c0 -8 -4 -12 -9
-9 -4 3 -8 9 -8 15 0 5 4 9 8 9 5 0 9 -7 9 -15z"/>
<path d="M1416 2877 c-16 -12 -16 -14 -3 -14 9 0 18 6 21 14 3 7 4 13 3 13 -2
0 -11 -6 -21 -13z"/>
<path d="M1406 2842 c-3 -5 1 -9 9 -9 8 0 12 4 9 9 -3 4 -7 8 -9 8 -2 0 -6 -4
-9 -8z"/>
<path d="M1420 2759 c0 -5 5 -7 10 -4 6 3 10 8 10 11 0 2 -4 4 -10 4 -5 0 -10
-5 -10 -11z"/>
<path d="M1444 2389 c0 -13 3 -15 13 -7 7 6 13 12 13 13 0 2 -6 5 -13 8 -7 3
-13 -3 -13 -14z"/>
<path d="M1445 2349 c-4 -6 -5 -12 -2 -15 2 -3 7 2 10 11 7 17 1 20 -8 4z"/>
<path d="M1387 1693 c3 -7 6 -13 8 -13 2 0 5 6 8 13 3 8 -1 14 -8 14 -7 0 -11
-6 -8 -14z"/>
<path d="M1457 1564 c-3 -3 -3 -12 0 -20 3 -8 -1 -22 -8 -31 -13 -15 -12 -15
7 -3 14 9 19 20 16 36 -5 26 -6 27 -15 18z"/>
</g>
</svg>
